<!-- <svg width="20" height="20" viewBox="0 0 20 20" fill="#000" xmlns="http://www.w3.org/2000/svg">
<path d="M6.88232 14.113H0C1.58394 11.9944 2.89459 10.2373 4.21082 8.47457C3.53597 6.29378 2.88343 4.2034 2.11378 1.71188C4.62354 2.56499 6.70385 3.26556 8.81205 3.97742C10.5912 2.68929 12.309 1.43503 14.2889 0V6.83617C16.1517 8.25425 17.9085 9.59321 20 11.1921C17.6018 11.9717 15.5494 12.6384 13.3575 13.3503C12.6548 15.4181 11.9409 17.5141 11.0931 20C9.63748 17.9605 8.36029 16.1752 6.88232 14.113Z" fill="#000"/>
</svg> -->

<svg width="93" height="93" viewBox="0 0 93 93" fill="#000" xmlns="http://www.w3.org/2000/svg">
<path d="M30.8837 62L19.375 73.625C18.0962 74.7875 16.3912 75.5625 14.5312 75.5625C12.7328 75.5625 11.0079 74.848 9.73618 73.5763C8.46445 72.3046 7.75 70.5797 7.75 68.7812V67.8125L11.625 39.215C12.4387 30.2637 19.9175 23.25 29.0625 23.25H63.9375C73.0825 23.25 80.5613 30.2637 81.375 39.215L85.25 67.8125V68.7812C85.25 70.5797 84.5355 72.3046 83.2638 73.5763C81.9921 74.848 80.2672 75.5625 78.4688 75.5625C76.6088 75.5625 74.9038 74.7875 73.625 73.625L62.1163 62H30.8837ZM27.125 31V38.75H19.375V42.625H27.125V50.375H31V42.625H38.75V38.75H31V31H27.125ZM63.9375 31C63.1667 31 62.4275 31.3062 61.8825 31.8512C61.3374 32.3962 61.0312 33.1355 61.0312 33.9062C61.0312 34.677 61.3374 35.4163 61.8825 35.9613C62.4275 36.5063 63.1667 36.8125 63.9375 36.8125C64.7083 36.8125 65.4475 36.5063 65.9925 35.9613C66.5376 35.4163 66.8438 34.677 66.8438 33.9062C66.8438 33.1355 66.5376 32.3962 65.9925 31.8512C65.4475 31.3062 64.7083 31 63.9375 31ZM57.1562 37.7812C56.3855 37.7812 55.6462 38.0874 55.1012 38.6325C54.5562 39.1775 54.25 39.9167 54.25 40.6875C54.25 41.4583 54.5562 42.1975 55.1012 42.7425C55.6462 43.2876 56.3855 43.5938 57.1562 43.5938C57.927 43.5938 58.6663 43.2876 59.2113 42.7425C59.7563 42.1975 60.0625 41.4583 60.0625 40.6875C60.0625 39.9167 59.7563 39.1775 59.2113 38.6325C58.6663 38.0874 57.927 37.7812 57.1562 37.7812ZM70.7188 37.7812C69.948 37.7812 69.2087 38.0874 68.6637 38.6325C68.1187 39.1775 67.8125 39.9167 67.8125 40.6875C67.8125 41.4583 68.1187 42.1975 68.6637 42.7425C69.2087 43.2876 69.948 43.5938 70.7188 43.5938C71.4895 43.5938 72.2288 43.2876 72.7738 42.7425C73.3188 42.1975 73.625 41.4583 73.625 40.6875C73.625 39.9167 73.3188 39.1775 72.7738 38.6325C72.2288 38.0874 71.4895 37.7812 70.7188 37.7812ZM63.9375 44.5625C63.1667 44.5625 62.4275 44.8687 61.8825 45.4137C61.3374 45.9587 61.0312 46.698 61.0312 47.4688C61.0312 48.2395 61.3374 48.9788 61.8825 49.5238C62.4275 50.0688 63.1667 50.375 63.9375 50.375C64.7083 50.375 65.4475 50.0688 65.9925 49.5238C66.5376 48.9788 66.8438 48.2395 66.8438 47.4688C66.8438 46.698 66.5376 45.9587 65.9925 45.4137C65.4475 44.8687 64.7083 44.5625 63.9375 44.5625Z" fill="black"/>
</svg>
